<?xml version="1.0" encoding="utf-8"?>
<!-- Generator: Adobe Illustrator 27.4.1, SVG Export Plug-In . SVG Version: 6.00 Build 0)  -->
<svg version="1.1" xmlns="http://www.w3.org/2000/svg" xmlns:xlink="http://www.w3.org/1999/xlink" x="0px" y="0px"
	 viewBox="0 0 4378.1 2434.9" style="enable-background:new 0 0 4378.1 2434.9;" xml:space="preserve">
<style type="text/css">
	.st0{display:none;}
	.st1{display:inline;fill:#4B4B4B;}
</style>
<g id="Layer_1" class="st0">
</g>
<g id="bg" class="st0">
	<rect x="-16.2" class="st1" width="4394.3" height="2434.9"/>
</g>
<g id="Layer_2">
	<path d="M4328.7,228c21.3,2.7,20.1,12.7,7.2,25.5c-5.5,5.4-10.4,11.4-16.3,16.2c-23.8,19.3-35,41.1-28.6,74.1
		c6.3,32.6,3.6,66.5-32.2,85.7c-6.2,3.3-12.5,10.2-8.5,15.7c28.5,38.7-8.1,36.6-27.6,41.6c-0.7,11.5,5.9,14.5,10.6,18.7
		c13.6,12.1,9.8,17.9-6.7,19.5c-40.9,3.9-75.7,18.8-102.7,51.3c-11.2,13.6-29.3,14-45.8,14.8c-19.5,1-30.4,8.3-37.9,28.6
		c-42.8,116.3-44.2,99.8-132.8,35.5c-25.8-18.7-41.3-98.7-26.5-126.2c5.5-10.2,5.1-17.9-0.2-27.3c-19.9-35.3-39.8-70.6-58.6-106.5
		c-8.8-16.8-21.3-23.7-39.7-23c-15.4,0.6-30.8,0.4-46.1-0.2c-43.9-1.9-59.8-16.3-63-56.6c-0.7-8.6,4.2-17.9,11.5-17.6
		c41.2,2,45.6-33.6,61.5-57.5c12.6-8.4,25.1-16.8,37.7-25.3c17.6-0.2,35.2-1,52.7-0.6c67.3,1.5,132.8,1.4,194.7-35.7
		c37.2-22.3,83.1-28,127.8-15.4c7.9,2.9,21.1,6.3,23.2,14.2c20.6,77.4,49.8,85.9,121.7,42.9C4311,216.3,4320.3,225.6,4328.7,228z
		 M4320.4,248.6c-16.2-10.2-25.2-3-34.8,2c-54.9,28.4-94,12.8-110.6-46c-4.9-17.4-12.8-27.2-30.2-29c-58.4-6.2-112.2,5.4-158.1,43.4
		c-11,9.2-21.6,14.4-35.6,12.6c-40.5-5.4-81.2-2.4-121.7-1.8c-38.4,0.6-70.1,14.8-86.3,52.9c-4.4,10.4-11.1,20.6-21.9,23.3
		c-18.6,4.6-18.6,16-16.8,31.1c2.3,18.4,15.8,19.4,28.8,20.2c19.7,1.2,39.5,1.1,59.3,0.7c18.6-0.4,30.6,7.4,39.1,24.1
		c17.8,35.1,35.1,70.7,56.1,103.9c13.4,21.2,24.4,38.3,1.4,59.4c-5.7,5.2-1.2,14.5-0.5,22.1c4.5,52.6,32.3,87.9,77.7,113.5
		c20.1,11.3,31.3,6.6,39.5-10.7c7.9-16.7,14.1-34.5,18.7-52.4c7.7-29.6,23.9-45.1,56.2-42.2c11.5,1,26.4,2.2,33.2-9.7
		c15.7-27.3,44.3-34.5,69.5-46.9c12.3-6.1,30.5-6.4,16.1-27.9c-4.2-6.3-0.1-13,7.6-15c19.1-4.8,39.5-6.4,23.9-36.1
		c-5.5-10.5,8-18.7,18.8-22.9c19.9-7.7,28.8-22.4,28.3-43.4C4276.8,327.2,4268.7,278.5,4320.4,248.6z"/>
	<path d="M3771.7,543c-20.6-9.5-49.9-10.9-57.9-33.7c-11.2-32-44.3-29.3-62.8-48.7c-20.5-21.5-44.3-28.9-72.6-8.1
		c-10.5,7.7-25.5-1.2-34.5-11.9c-5.3-6.4-2.5-12.7,5.1-15.4c13.4-4.8,25.8-11.4,20.4-27.9c-5.3-16.3-21.5-18-35.7-17.8
		c-35.6,0.4-69.4-1.8-99.4-25.3c-11.8-9.2-29.1-8.7-44.7-7.3c-7.8,0.7-15.8,2.1-18.4,10.9c-2.6,9,4.1,13.6,9.8,19
		c12.3,11.8,32.6,11,43.7,25.5c-4.8,7.2-10.2,6.8-15.7,6.5c-13-0.6-21.2,5.3-22.4,18.5c-0.9,10.3,1.9,20.2,10.6,26.3
		c12.2,8.6,19.9-1.4,28.3-8.3c7.9-6.5,14.3-16.6,27.3-14c-11,59.2-6.2,64.9,56.3,67c12,0.4,24.7-1.3,31.5,12.3c0,0,0.1,0.1,0.1,0.1
		c23,10.1,50.2,8.7,71.1,24.2c12,8.9,33.5,11.1,34.3,27.4c0.9,18.9-21.7,17.8-34.3,24.9c-6.8,3.8-14.7,6.9-13.7,16.3
		c1.2,11.4,11.3,14,19.6,13.1c28.1-3.1,47,15.1,68.8,26.9c13.4,7.3,23.4,24.6,43.4,12c18.4-11.6,21.2-27.8,14.7-50
		c19.5,10.7,32.4,12,43.9-4.7C3808.2,572.3,3804.6,558.2,3771.7,543z M3779.7,584.2c-4.4,10.8-11.2,15.8-23,9.8
		c-27.5-13.9-30,1.8-27.7,23.4c3.1,29-7.9,29.7-30.2,16.7c-20.5-12-38.7-27.8-63.1-34c41-43.3,39.2-47-13.6-76.6
		c-25.3-14.2-57.5-14.3-77.3-39.9c-5.1-6.7-16.7-1.7-25.3-1.6c-14.2,0.3-28.7,1.3-42.5-1.2c-3-0.5-5.4-1.5-7.3-2.9
		c-18.1-4.7-15.4-16.8-8.8-51.6c-10.8-2.2-24.9-5.6-31.5-0.3c-7,5.7-10.9,18.4-22.5,15.7c-8.5-2-8.9-3.6-8.2-12
		c1-10.8,6.6-11.6,17.5-11.1c4.5,0.2,25.4-3.3,27.1-17c1.7-13.7-30.1-20.1-41.7-24c-6.1-2.1-16.8-4.4-14.6-11.8
		c2.2-7.2,8.9-8.4,15.4-9c13-1.2,23.9-2.1,32.2,7.2c27.7,31.2,60.1,31.4,88.5,25.3c11.6-2.5,24.8-4.6,29.2,8.8
		c4.5,13.5-5.8,19-17,22.9c-6.4,2.2-8.7,7.4-4.3,12.6l1.1,20.6l0,0c11.2,3.9,21.9,9.8,32.2,17.7c8.8,6.7,19.1,0.3,26.5-7
		c14.3-14.1,26.4-10.6,43.5-1.4c49.5,26.8,77.9,83,137.1,96.2C3782.9,562.2,3784,573.6,3779.7,584.2z"/>
	<path d="M2064.7,1831.7c-0.9,23.5-8.6,48.7-15.9,73.9c-1.2,4-4,7.8-6.7,11.2c-26.7,33.4-123.5,41.6-155.6,13.1
		c-22.2-19.7-45.7-36.9-72.3-50.9c-31.5-16.6-60.7-15.9-90.3,2c-27.8,16.8-57.3,25.8-90.4,25.5c-30.9-0.3-49.3-14.5-43.8-45
		c5.7-31.8,2.1-60.2-10-89.4c-11.2-27-5.8-48.2,28.1-50.6c48.4-3.5,69.1-46.6,103.3-70.2c14.5-10,25.8-28.5,47-8.1
		c8.3,8,18-3.3,25.1-9.7c14.7-13.2,32.5-17.8,51.4-19.2c16.4-1.2,31.2-1.1,28.5,23.3c-2.1,19.4,14.1,27.7,29,29.5
		c16,1.9,16-14.6,18.5-25.9c2.6-11.7-4.8-29.8,14.9-31.1c17.9-1.2,36,11.7,38.2,26.2c8.3,53.2,52.5,81.3,79.1,121.4
		C2057.2,1779.1,2064.4,1802.8,2064.7,1831.7z M2049.5,1829.8c4.7-48.8-29.7-77.9-57-109.9c-16.4-19.3-34.5-36.2-36.7-63.8
		c-1-12-7.6-25.8-21.2-25.6c-12.5,0.2-9.1,15.5-11.8,24c-10.8,34.5-24.5,40-53.7,19c-7-5-13.6-11.3-18.4-18.4
		c-20.9-31.3-29.9-33.1-60.5-9.3c-9.5,7.4-20.1,20.5-31,15.1c-32.9-16.5-53,6.2-65.9,25.6c-19.9,30-46.7,41.6-78.5,47.4
		c-24.5,4.4-28.2,18.1-19.3,37.7c12.6,27.9,16,56,9.8,86.3c-4.4,21.4,6.4,32.7,29.1,33c25.6,0.3,50.2-1.3,72.4-16.4
		c41.7-28.4,83.7-26.1,126.6-1.5c22.1,12.7,41.9,28.1,60.2,45.3c20.8,19.5,43.4,23.3,69.7,14.4c12.4-4.2,25.3-7.6,38.2-9.8
		c22.2-3.8,34.8-16.7,40.1-38C2046,1866.5,2050.7,1848.5,2049.5,1829.8z"/>
	<path d="M3784,215.2c-12.6,8.4-25.2,16.8-37.7,25.3c-36.9,7.5-71.1,24.9-102.2,43.1c-15.4,9-27.4,34.9-42.5,52.2
		c-33.1,38-76,33.2-118.6,28c-11.6-1.4-24.2-8.9-24.7-22.7c-0.5-12.5,12-13.9,21.5-16c9.6-2.2,14.9-7.4,17.1-17.3
		c3.5-15.9,13.8-23.4,30.5-24.2c11.2-0.6,24.7-6.3,24.3-17.8c-0.5-16-16.2-10.3-26-10.2c-30.5,0.1-56.6-16.3-85.7-21.3
		c-6.2-1.1-13.4-4-12.9-12.3c0.5-8.2,8.4-9.5,14.2-11.6c57.8-20.8,118-33,178.5-41.3c33.3-4.6,67.9-0.1,101.8-1.1
		c22.4-0.7,39.7,10.9,58.2,20C3794.1,194.9,3789.8,205,3784,215.2z M3474.1,344.2c8.8,19.6,62.5,10.3,88.3,0.5
		c22.4-8.6,51.8-27.8,46.5-47.6c-8.3-31.1,7.2-26.7,24.3-30.6c44.2-10,83.8-31.2,122.3-54.2c15.7-9.4,9.6-16.5-3-22.7
		c-12.2-6-25.2-7.9-38.4-5.6c-19.5,3.3-39.4,6.7-58.8,3.2c-67.8-12.3-196.5,21.1-196.5,30.8s53.5,22.9,79.9,22.1
		c13.6-0.4,28.4,2.4,32.4,17c3.9,14.3-7.6,24.5-18.4,32c-6.9,4.8-15.8,7.4-24.2,9.3c-8,1.9-16.8,3.7-15.1,13.4
		C3517.9,338.2,3465.4,324.6,3474.1,344.2z"/>
	<path d="M556.7,267.6c-26-23.7-75.6-25.5-102.9-2.6c-10.5,8.8-22,7.6-33.9,8.9c-17.8,2-45.1-9.4-51.1,8.3
		c-6.7,19.8,18.2,34.4,33,48.1c42.6,39.2,47.1,39.2,77.6-10.9c14.6-24,28.1-41.6,55-28.5c12.6,1,22,2.2,27.6-6.5
		C566.4,277.6,561.8,272.2,556.7,267.6z M551.9,280.9c-4.9,5.5-15.3,3.9-32.4-0.5c-17-4.5-44.5,14.4-53.8,31.9
		c-8.2,15.3-5.3,19.2-21.2,23.5c-15.9,4.3-21.5-11.2-40.4-23.6c-13.1-8.6-21.1-11.9-15.1-24.3c5.3-11.2,23.3,3.1,39,1.8
		c10.4-0.8,16.9-0.9,26.2-6.4c24.1-14.4,51.8-33.7,74.8-18.7C533.5,267.4,555.8,276.6,551.9,280.9z"/>
	<path d="M3240.6,367.9c-9.6-4-19.4-3.5-28.6,1.1c-18.4,9.2-33.5,3-48.1-8.9c-12.7-10.3-25.5-21.1-44-17.5
		c-11.9,1.4-24.2,1.7-35.7,4.6c-15.4,3.9-31.2,12.3-28,30.4c3.1,17.6,21.2,15.9,35.2,15.6c9.5-0.2,26.6-5.5,27.2-3.9
		c11.3,31.5,46.1,12,64,30.2c8.4,8.6,23,3.3,33.2-4.8c7.7-6,14.5-12.5,25.3-13.9c11.8-1.5,31.3,5.8,32.1-12.5
		C3274.1,370,3252.8,373,3240.6,367.9z M3268.8,387.1c-1.1,11-18.9,6.8-29.9,7.8c-10.2,0.9-19.4,2.9-24.3,8.3
		c-8.7,9.7-21.1,15.6-29.2,8.3c-14.8-13.4-52.5-9.5-57.1-31.7c-1.6-7.9-28.4,4.1-38.9,3.1c-13.1-1.2-23.3,5.3-25.9-5.3
		c-2.7-10.9,8.9-18.1,23.5-20c10.9-1.4,25.6-2.6,36.9-3.1c17.4-1.6,26.6,11,38.3,17.5c13.5,7.6,28.8,11.8,46.3,6.8
		c8.8-2.5,14.6-8.4,23.5-5.8C3243.5,376.4,3269.9,376.1,3268.8,387.1z"/>
	<path d="M1958.3,900.4c-26-25.1-56.1,24.5-61.5,67.3c49.1,10.4,40.9,34,73.2,4.5c7-6.4,15.4-12.7,15.6-25.5
		C1985.8,931.5,1967,916.7,1958.3,900.4z M1963.4,964.8c-24.9,22.7-18.6,4.6-56.4-3.5c4.2-32.9,27.3-71.1,47.4-51.8
		c6.7,12.5,21.2,23.9,21,35.6C1975.2,955,1968.8,959.8,1963.4,964.8z"/>
	<path d="M1914.5,980.5c-15.4-4.5-19.1,11.4-26,20.4c-17.7,23.1-37.7,42.4-68,47.2c-17.9,2.9-27.3,17.2-38.2,29.1
		c-7.9,8.6-11.8,18.7-1.3,28.7c10.2,9.7,20.8,12.2,31.1,0.6c12-13.5,27.9-14.7,44.4-17.2c52.6-8.1,69.6-27,70.5-76.5
		C1925.5,1001.7,1931.3,985.4,1914.5,980.5z M1916.6,1033.5c-10.2,39.4-34.5,49.1-71.9,46.9c-11.7-0.7-21.2,9.4-32,18.1
		c-9.3,7.6-16,3.8-21.1-5.6c-5.2-9.7-0.7-17.1,6.4-22.7c9.7-7.7,18.9-17.6,31.6-16.9c21.6,1.2,35.7-16,52.2-31.5
		c6.4-6,21-34.4,30.6-28.3C1923,1000.2,1917.6,1024.5,1916.6,1033.5z"/>
	<path d="M1737,1345.6c-12.9-16.8-29.8-29.3-24.4-56.3c3.3-16.4-25.4-32.9-36.9-25.2c-23.4,15.8-20.3,63.2,5.9,76.5
		c17.9,9.1,24.9,20.3,14.3,38.8c-6.2,10.8-12,22.3-1,32.7c10.9,10.4,26,12.7,39.8,9.4c16.7-4,13.4-20,13.9-26.5
		C1749.6,1373.2,1746.6,1358.1,1737,1345.6z M1733.7,1413.2c-8.9,3.8-21,1.1-29.4-5.9c-8.4-7.1,0.7-31.6,3.7-40.5
		c5.2-15.2-6.9-23.5-19.8-29c-19-8-25.8-44.2-11.7-58.5c6.9-7,24.6,2.4,24.1,20.5c-0.4,18.1,13.9,32.6,24.3,44.3
		c7.7,8.8,13.9,19.8,15.5,36.8C1740.7,1386,1744.6,1408.6,1733.7,1413.2z"/>
	<path d="M886.5,498.2c-15.8,0.1-31-0.9-39.6-17.3c-8-15.1,3.2-24.2,10.2-35.1c5.2-8.2,10.5-16.9,12.9-26.2
		c6.3-23.7,22.1-38.1,44.1-44.5c33.6-9.8,67.8-17.6,102-25.4c7.1-1.6,15.2-0.2,22.6,1.2c7.5,1.4,16.6,3.5,18.2,11.9
		c1.7,9.2-7.3,12.8-14,15.9c-31.7,14.9-63.5,29.6-95.6,43.8c-15.7,6.9-24.6,16.1-22.5,35C928.5,491.6,921.5,498.4,886.5,498.2z
		 M1022.3,368.8c-66.8,5.3-132.9,11.6-156.6,91c-1.9,6.4-6.3,12.6-0.1,17.7c10.2,8.6,22.8,5.9,34.5,4.3c7.4-1,11.6-6.3,9.4-14.1
		c-11.7-41.6,18.5-53.8,47.3-65.1C980,393.6,1001.9,382.8,1022.3,368.8z"/>
	<path d="M2033.9,1590.5c-1.4,13.3-10.5,13.2-17.3,10.7c-31-11.4-62.5-6.6-94.1-5.1c-13.2,0.6-27.2-0.5-35.8-12.7
		c-17.1-24.3-41.6-38.2-67.5-50.7c-15.7-7.6-23.8-19.5-16.9-37.3c3.4-8.8,11.5-18.1,19.6-11c20.2,17.8,41.7,2.5,61.5,6.2
		c34.5,6.5,66.4,22.3,95.5,42.5c18,12.5,36.1,25.2,47.7,44.6C2029.3,1582.3,2031.9,1587,2033.9,1590.5z M1816.7,1505.9
		c27.4,23.4,56.7,42.5,83.1,66c29.5,26.3,68.1-5.1,102.8,5.4c-20.4-28.3-47.3-45.9-78.2-56.9c-16.3-5.8-34.2-23-48.2-15.6
		C1854.6,1516.4,1838.2,1513.1,1816.7,1505.9z"/>
	<path d="M2368.5,1948.8c-1.2,18.6-9.1,33.3-24.9,43.8c-29.3,19.4-57.3,40-80.6,67c-16.6,19.3-37.8,11.1-52.4-2.8
		c-14.4-13.7-0.3-26.5,10.2-35.5c22.4-19.1,40-43.6,66.5-58.1c17.1-9.4,16.6-23.4,9.7-39.5c-4.6-10.6-14.6-24.5-3.2-33.1
		c13.9-10.4,19.6,7.8,27.6,15.1c8.4,7.7,17.8,12.7,28.4,16C2363.2,1925.9,2369.5,1934.7,2368.5,1948.8z M2242.5,2053.3
		c8.8,0.2,13.9-5.4,18.5-11.7c15.3-20.6,36.8-34.2,56.9-49.2c11.4-8.5,23.9-15.6,31.2-28.4c3.7-6.5,10.5-14.9,3.9-20.6
		c-6.9-6-17.3-9.3-26.7-10.9c-12.4-2.2-9.5,9.3-10.7,15.9c-2.6,14.1-10.8,23.7-23.2,29.9c-24.2,12-40.1,33.6-59.4,51.2
		c-4.6,4.2-11.5,8.7-7.8,16.1C2228.4,2051.8,2235.9,2052.5,2242.5,2053.3z"/>
	<path d="M845,1671.7c-8.5,27.4-21.1,60.5-24.6,96.6c-2,20.3-25.6,20.6-43.4,17.8c-27.2-4.2-35.3-26.8-35.2-48.3
		c0.1-50.4,19.2-92.1,67.1-116.2C830.5,1610.6,845.7,1628.5,845,1671.7z M829.8,1668.8c-0.1-27.1-5.8-34.4-19.1-30
		c-33.6,11.2-64,83.8-48.8,115.8c5.1,10.8,12.1,17.8,24.8,17.4c9.1-0.3,20.7-1.6,20.5-11.6C806.5,1725.7,824.4,1695.8,829.8,1668.8z
		"/>
	<path d="M1628.5,1397.8c23.2,0.3,36.8,17,30.2,38.7c-6.3,20.8-13.2,41.4-21.5,61.5c-12.2,29.4-36.3,37.7-73.3,26.7
		c-23.7-7-38.5-32.7-34.1-58.9c0.4-2.1,0.6-4.4,1.4-6.4C1534.8,1450.1,1617.9,1397.6,1628.5,1397.8z M1586.9,1515.4
		c18.8,1,31.9-6.8,38-24.8c4.9-14.4,9.1-29.1,13.7-43.6c3.1-9.9,13-20.7,0.5-29.5c-13-9.2-24.6-1.9-35.4,7.1
		c-11.8,9.7-23.2,20.6-36.6,27.4c-18,9.1-22.6,20.2-17.6,39.5C1555,1512.5,1569.8,1514.7,1586.9,1515.4z"/>
	<path d="M859.7,975c-5-19.2-9.7-36.9,1.9-56.4c10.2-17.3-2.9-22.7-15-24c-40.4,0-61.4,27.6-48.9,62.2c6.3,17.3,5.6,33.9,2.6,51.3
		c-4.7,27.1,16.9,30.2,34.4,33.8c21.2,4.4,30.2-8.8,29.8-28.3C864.1,1000.7,862.9,987.5,859.7,975z M849.9,974.2
		c2.2,10.8,3,22.3,3.2,33.5c0.3,16.9-5.8,28.4-20.1,24.6c-11.8-3.2-26.4-5.8-23.2-29.3c2-15.1,2.5-29.5-1.7-44.6
		c-8.5-30,5.7-54,33-54c8.2,1.1,17.1,5.8,10.2,20.8C843.4,942.1,846.6,957.5,849.9,974.2z"/>
	<path d="M3996.7,1487.7c-33.4-9.3-63.5-21.9-80.7-55.6c-7.7-15.2-18.7-33.5-38.1-33.2c-54.8,0.9-95.1-34.1-140.4-55.1
		c-40.2-18.6-74-17.1-108.3,8.6c-48.7,36.5-87,21.2-95.8-38.1c-2.2-15-4.4-37.4-23.2-33.6c-40,8-27.9-12.2-22.9-32.7
		c2.9-11.9,2.1-25.1-11.7-31c-12.3-5.2-24.8-3.7-31.1,9.5c-12.7,26.5-33.6,30.9-57,19.1c-21.6-11-33.4-64.5-20.6-87
		c12.9-22.7,33-23.1,54.1-12.8c14.4,7,25.4,8.3,37.1-6.4c16.4-20.6,33.3-16.3,48.5,3.6c9.2,12.1,16.5,26.4,31.4,33
		c11.3,5,23.8,9,34.1-0.4c9.8-9,0.7-17.9-3.3-26.5c-12.4-26.8-20.1-52.2,19.1-64c3.9-1.2,9-4.8,9.9-8.2
		c12.7-49.6,55.8-73.3,87.7-107.1c16.4-17.4,30.6-30,54.3-30.4c13.4-0.2,26.2-3.5,38.1-9.2c14.2-6.8,17.6-18.8,5.5-28.5
		c-16.6-13.4-25-36.6-59.6-38.8c38.5-13.2,69.6-9.3,96.9-21.6c15.9-7.2,33.7-14,36.6-34.4c2.9-20.9-12.9-31.3-27.6-41.1
		c-24.6-16.4-50.3-31-62.1-60.9c-4-10.2-15-21.1-25.9-15.2c-29.5,15.9-43.5-2.3-59.5-21.4c-6.9-8.2-16.5-14.7-26-19.8
		c-20.5-11-44.6-13.4-63-1.7c-20.1,12.7-17.4,37.7-8.7,57c16.2,36.1-1.6,66.2-13.2,97.5c-6.5,17.6-20.1,19.4-28.6,3.6
		c-21.8-40.1-56-55.2-99.3-60.2c-27.1-3.1-56.3-34-42.2-74.9s89.9-85.9,102.7-85.5c12.9,0.4-11.6,18.7-14.5,26.6
		c-4.3,11.5-6,26.9,7.1,32c18.8,7.3,37.6-2.3,51.1-14.5c12.4-11.2-1.4-19-10.2-24.9c-8.7-5.9-12.8-11.6-4.7-21.1
		c18.6-21.9,16.4-46.4,8.3-71.5l-0.1-0.1c-7.6-2.7-16-3.8-21.9,2c-23.9,23.5-44.1,5.6-65.1-5c-10.7-5.4-13.5-16.8-20-25.4
		c-13.9-18.2-33.2-23.1-52.6-12.3c-21,11.7-12.3,29.5-3.8,45.5c3,5.8,7.7,11.1,9.1,17.2c1.6,7.2-2.3,14.6-10.8,10.9
		c-30.3-13.3-64.8-5-95.5-17.7c3.8-12.1,15.9-12.3,22.4-19.4c7.7-8.4,11-18.5,1.9-26.1c-27.9-23.3-50.7-54.8-95.2-50.3
		c-22.6,2.3-42.4,8-62.6,17.1c-30.5,13.8-31.4,18.1-4.9,40c15.2,12.6,29.9,25.8,44.8,38.7c-48.8-6.2-94.7-19.3-140.7-30.2
		c-31.4-7.4-60.1-14.7-88.9-2.4c-52.1,22.2-102.9,13.2-154.4,0.2c-16-4-31.6-10.1-47.8-12.5c-42.8-6.2-86.2-24.3-128.8-1.6
		c-26.1,13.9-50.6,30.5-79.1,40.1c-15.1,5.1-24,15.3-6.1,27.7c18,12.5,9.5,19.3-2.5,29.2c-17.2,14.2-14.4,31.9,4.5,38.8
		c23.5,8.6,19.4,18.4,11.8,36c-18.3,42.3-9.9,55.9,35.7,65.6c9.2,2,19.7,1.8,26.2,10.4c-0.7,7-6.7,8.4-10.6,11.9
		c-15,13.6-52.5,17.1-41.3,40.9c11.3,24.1,42.6,6.1,62.2-2.2c28.5-12,63.7-13.7,76.7-54c4-12.3,28.9-38,57.4-19.6
		c6.7,4.3,17.1,2.8,25.6,4.6c32.1,6.5,65.5,5.5,96.4,19.7c28.3,13,41.3,42.9,66.9,57.4c57.3,32.7,77.9,80,71.5,145.1
		c-5,50.7,10.4,99.2,48.6,135c35.9,33.6,61.6,72.7,83.5,116c11.3,22.2,36.2,35.7,58.2,28.1c29-10,41.1,7.8,48,24
		c21.4,49.8,66,61.4,110.6,71.4c19.3,4.3,37,8,55,17.5c33.4,17.6,64.8,36.5,88.8,66.4c7.8,9.7,19.2,13.7,31.4,16.6
		c43.6,10.5,45.1,14.7,23,54.8c-4.2,7.7-9.2,15.2-11.8,23.5c-12.8,40.3-17.3,79.3,19.5,111.3c9.3,8.1,13.3,20,16.3,31.8
		c5.8,22.4,18.1,40,39.2,50.2c34.6,16.8,44.9,44.5,40.7,81.3c-10,88.6-43.7,173.2-41.3,264.6c0.8,28.9-6.4,60.5-8.6,90.9
		c-2.7,36.8,27.9,63.9,64.8,62.9c11.2-0.3,16.8-6.6,17.7-15.7c3.7-37.4,22.1-70.7,27-108.1c5.4-41.4,34.9-69.5,69.3-88.7
		c19.4-10.8,35-21.6,42.5-42.4c3.3-9.1,4.2-21.7,17.8-19.3c24.3,4.2,33.4-13.1,43-28.6c12.1-19.5,23.4-39.7,33.4-60.3
		c11.4-23.3,25.8-40.5,54.5-39.9c22,0.5,34.6-11.7,39.8-32.2c13.3-52,27.7-104,32.8-157.4C4070.2,1530,4048.9,1502.2,3996.7,1487.7z
		 M3515.8,1370.5c-27.5-40-76.9-49.1-111.5-79.3c-3.7-3.3-12.6-0.6-19.1-0.8c-49-1.4-101.8-12.5-112.7-64.3
		c-4.5-21.1-28.1-36-49.1-40.8c-19.9-4.5-37.6,32.5-56.3-9.3c-24.7-55.2-67.5-95.5-104.4-141c-31.3-38.7-26.7-88.1-26.5-132.7
		c0.3-51.1-18.2-85.9-59.2-112.5c-11-7.1-22.8-14.9-30.2-25.2c-33.9-47-82.3-62.2-136.8-67.5c-20.4-2-40.8-5-60.7-13.2
		c-22.4-9.2-61.2,16.4-66.3,41.3c-2.5,12.3-9.2,19.8-20,23.8c-23.4,8.7-47.1,16.7-72.2,22c12.6-15.1,28.8-24,46.1-31.5
		c6.9-3,15.2-6.5,13.3-16.1c-1.4-7.3-8.9-9.5-15.2-10.8c-13.9-2.8-28.1-4.7-42.1-7.2c-32.2-5.8-39.6-18.8-24.7-48.1
		c11.2-22,28.4-42.5-12.1-52.9c-10.4-2.7-10.6-14.3-1.5-20.8c22.7-16,19.5-31.8-0.1-47c2.9-3.1,4.2-4.8,5.7-6.1
		c92.2-77.1,190.5-35.6,287.1-13.5c31,7.1,58.5,8.6,89.4-3.8c33.1-13.3,68-17.5,105.5-3.6c40.6,15.1,86.3,15.2,125.6,36.8
		c3.4,1.9,9.2,2.2,12.8,0.7c14.5-6.1,39.3,4.7,43.3-13.5c3.5-16.1-20.5-19-33-26.9c-17.5-11-47.3-27.4-43.2-39.4
		c7.2-21.2,37.2-20.5,60.3-21.5c22.9-1,42.2,3.8,60,20.5c20.8,19.4,33.3,33.6-5,45.2c-7,2.1-15.2,7.4-14.9,15.9
		c0.3,9,9.8,10.6,16.8,13.5c18.6,7.7,38.2,9.4,58.1,9.9c14.1,0.4,28.7-1.2,41.8,6.6c9.8,5.8,20.6,10.4,30.1,0.6
		c10.2-10.6,10-23.8,4.7-36.8c-1.6-4-4.7-7.4-7-11.1c-5.9-9.3-14.1-20.2-0.2-27.9c12.4-6.9,24.7-0.9,29.8,11.8
		c9.8,24.2,32.6,31.1,52.2,42.6c9.9,5.8,20.2,6.7,31.6,2.3c8.2-3.2,20.3-30.2,32-12.7c4.2,6.2,5.1,25.7-0.7,38.8
		c-5.8,13.1-11.3,12.8-14,22.1c-2.6,9.4,1.3,16.9,6.6,20.4c5.4,3.6,18.4,8.9,12.9,16.5s-12.3,9.5-18.4,11.5s-25.6,6.2-30-2.2
		c-5-9.6,7-25.8,12.1-30.9c5.1-5.1,9.4-15.4,3.6-24.1c-5.8-8.7-77.9,35.4-108.2,68.1c-34.1,36.7-12.8,104.1,37.3,112.9
		c40.1,7,71.9,18.8,93.7,56.7c14.6,25.6,36.2,21.6,49.6-5.7c17.1-34.7,31.4-70,15.2-110c-5.2-12.9-8-29.6,6.1-39.3
		c13.5-9.3,29.8-7.1,44,0.6c9.5,5.2,19.6,11.3,26.2,19.6c16.9,21.4,32,43.1,64.3,24.2c7.4-4.3,15.4,2.2,18.6,9.6
		c13,30.3,40.4,45,65.2,63c27.3,19.8,25.8,30.8-3.1,47.4c-16.8,9.6-34.6,13.1-53.6,13.3c-14.3,0.1-28.7,1-41.3,9
		c-7.9,5-12.9,12.1-10.3,22.1c2.2,8.2,7.8,12.8,16.3,13.9c6.3,0.8,14.4-0.2,18.6,3.3c8.1,6.8,20,16.5,19.6,24.4
		c-0.7,12.7-16.4,11.7-26.8,12c-31.3,0.7-54.4,13.6-69.8,41.3c-4,7.3-11.1,14.6-18.6,17.9c-32.1,14.5-54.9,34.9-57.7,72.6
		c-0.6,8.6-8.7,14.5-16.9,18.9c-41.8,22.2-42.6,24.6-28.3,70c1.6,5.1,3.7,10.1,6.8,18.8c-23.4-1.1-28.7-16.9-37.3-29
		c-17.2-24.2-38.1-33.7-63.9-13.1c-13.7,11-27.6,9.2-43.3,7.4c-48.8-5.8-72.7,20.6-63.1,68.7c2.1,10.7,5.6,21.2,9.3,31.5
		c6.6,18.4,17.2,36.9,38,36c22.3-1,50.5,4,61.3-26.7c0.9-2.4,4.6-3.9,8.2-6.8c10.6,12.2,2.5,23.4-0.6,33.8
		c-6.8,22.6-6.4,38.4,24.3,30.5c16.3-4.2,25.1,0,25.4,18.4c0.4,31.4,12,57.2,44.6,73C3536.3,1395.9,3525.1,1384.1,3515.8,1370.5z
		 M4047.5,1587c-2.5,50.4-13.9,99.5-29.3,147.7c-4.9,15.3-13.4,24.2-30.5,24.4c-28.5,0.4-45.9,16.3-58,41.2
		c-10.5,21.6-23.2,42.2-35.2,63c-8.4,14.5-16.6,27.4-38.3,22.7c-16.7-3.6-22,10.8-24.7,24.4c-2.7,13.3-6.4,28.1-20.3,31.6
		c-41.7,10.5-56.4,49.9-84.4,75c-7.7,6.8-12.3,16.4-12.4,26.2c-0.4,30-9.8,58-16.8,86.6c-2.8,11.8,0.8,31-17.7,28.6
		c-16-2.1-35.2-6.9-39.6-28.8c-2.6-13.2-1.8-26.1,1-45.1c1.7-101.2,19.6-206.3,43.6-310.3c11.5-49.8-1.2-85.8-46.4-110
		c-1.9-1-3.7-2.4-5.5-3.6c-34.2-23.9-38.1-67-60.9-98.9c-23.3-32.6-7.7-73.8,17.2-106.6c12.1-16,12.5-32.3-0.6-48
		c-10.4-12.5-5.4-16.4,8.2-22.4c31.6-13.9,61.1-32.9,96.1-38.6c4.1-0.7,9.7-2.4,12.4-0.6c30.6,21.8,69.9,26.3,99.6,49
		c14.8,11.4,29.5,19.3,47.9,17.6c27-2.6,46.1,10.8,55.5,32.8c14.6,33.8,42.3,44.4,74,52.8C4041.6,1513.3,4050.6,1524.6,4047.5,1587z
		"/>
	<g>
		<path d="M2476,564.3c-49-25.6-93.2-61.4-153.4-62.4c-31.9-0.5-64.3,13.3-94.4,3.3c-35.7-12-79.7,10.8-108.9-27
			c-2.7-3.5-12.7-2.4-19.1-1.9c-20.3,1.6-38.4-5.4-57.4-11.2c-66.1-19.9-132.7-42.9-200.4-3.8c-16.6,9.6-33.1,8.3-48.4-5.5
			c-30.3-27.5-66.4-35.8-106.8-31.4c-37.5,4-72.6-9.2-114.1-17.3c30.6-19.6,18-32.8,0.4-45.3c-18-12.7-36-25.8-57.3-31.8
			c-17.1-4.8-37.4-3.1-24.6-31.7c3.3-7.3-6.9-17-15.1-19.2c-41.2-11.2-82.5-22.1-124.2-31c-14.8-3.1-24.7,4.8-14.7,21.2
			c13.8,22.5,27.5,45.3,59.3,45.8c16.7,0.3,30.8,8.8,47.1,21.4c-23.6,11.2-45.7,11.9-66.8,15.1c-59.5,8.9-114.5,29.1-165.5,60.6
			c-9,5.5-18.1,10.7-13.7,22.6c10.7,28.9-9.2,24.3-25.2,23.3c-29-1.9-50.8,3.4-47.9,40c0.7,8.6-0.3,19.9-13.4,22.4
			c-12.3-15.8-7.9-33.9-9.3-51.1c-0.9-10.3,3.1-24.1-12.4-26.5c-13.5-2.1-26.7,1.2-34.8,13.7c-4.7,7.3-8.2,15.5-11.4,23.6
			c-10.6,26.6-27.9,40-58.5,35c-40.3-6.5-76.9,3.8-114,21.9c-43.2,21.1-87.4,16.2-133-4.1c-86.1-38.2-175.2-63.3-271-34.8
			c-24.2,7.2-44.4,19.6-51.1,42c-11.7,39.3-43,56.1-73.8,74.9c-5.6,3.4-11.8,6-17.2,9.7c-23.5,16.5-37.2,52.3-25.7,75.5
			c11.6,23.4,30.4,36,59.2,26.4c10.3-3.4,21.1,2.3,30.3,9.4c35.7,27.5,78.9,9.8,84.9-35.5c2.4-18.5,0.4-37.6,0.4-56.5
			c6.3,15.1,5.1,31.2,16.7,43c11.1,11.2,23.3,21.4,38.2,34.9c-23.5,3.1-40.9,9.8-51.3,28.9c-10.7,19.6-37.6,11.2-51.1,26.8
			c-11.7,13.6-25.7,10.4-34-0.4c-19.1-24.4-30.5-38.8-60.6-6.2c-15.1,16.4-46,25.7-67.2,40.7c-24.9-33.5-35.9-74.4-70.9-98.6
			c-19.8-13.7-34.9-9.1-32.4,13.4c2.9,26.5-7.8,39.3-27.8,52.6c-20.7,13.9-14.9,55.1,3.5,57.2c8.2,0.9,17.8-10.7,31.1-5.8
			c13.3,5,7.8,12,15.6,16.7c6,3.6,10.7,8.6,19.4,6.7c-38.4,17.3-38,26.6-5.9,55.6c8.1,7.3,26.3,11.5,17.8,26.5
			c-7,12.2-21.6,5.2-33.3,2.9c-10.8-2.1-21.6-4.5-32.4-5.4c-10.2-0.8-19.9,2.1-25.7,11.6c-13.7,22.7-0.5,88.1,22.2,103.6
			c7.3,5,14.1,7.7,7.1,16.5c-20.3,25.3-26.9,59.8-58.6,77.5c-71.4,40-51.7,116.2-68.1,178c-1.1,4.1,3.1,10.4,6.2,14.8
			c45.6,65.9,65.9,91.7,150.8,62.9c48.8-16.5,94.8-9.7,139,16.4c16.3,9.6,24.6,19.8,20.1,39.4c-6.6,28.5,1.6,52.4,20.3,75.8
			c23.5,29.5,33.4,64.8,20.9,102.1c-12.8,38.3-11.7,75.6,2.8,112.5c16.8,42.7,34.8,85,52.2,127.5c8,19.6,21.5,26.4,42,19.4
			c6.1-2.1,13.8-5.3,19.1-3.4c57.2,20.9,91.1-16.9,119.3-53.2c20.8-26.8,44.7-56,44-95.1c-0.3-16.4,11.4-31.3,25-36.4
			c51.5-19.3,49.1-56.3,37.1-98.3c-3.3-11.6-4.1-23.9-7.8-35.3c-10.5-32.5,2.6-62.7,28.3-73.3c51.8-21.3,66.9-69.7,95.8-108
			c10.1-13.4,15.8-30.5,6.5-46.4c-10.5-18-25.8-3.5-38.4-1.6c-46.2,7.2-112.1-28.6-114.8-65.8c-1.8-24.3-8.8-44.2-25.6-61.9
			c-9.2-9.7-23.7-25.5-8.3-35.7c12.2-8,24.7,8.1,32.1,20.8c2.2,3.8,3.5,8,5.2,12.1c11.8,27.1,22.1,55,35.9,81
			c21.7,41,63.3,50.2,102.1,24.9c16.6-10.9,33.3-22.3,52.7-26.4c22.8-4.8,39.9-17,55.7-32.9c28.2-28.3-18.3-62.9-41.8-63.9
			c-10-0.5-19.7,9.8-37.6,7.4c-17.9-2.4-46.1-43.6-43.6-51.2c2.6-7.9,26.6,1.3,39.8,13.8s70.6,23.6,75.4,25
			c24.9,6.8,62.7-4.3,81.6,6.9c29.9,17.7,60.6,39.7,76.3,74.4c14,30.9,28.2,61.8,43.3,92.2c5.9,12,9.1,31.6,27.3,27.3
			c16.3-3.9,21.4-21.4,21.4-37.3c-0.1-23,11.8-39.3,26.8-54.3c26.1-26.2,60.8-38.9,91.4-58c8.1-5.1,18.4-4.2,24.1,3.6
			c20.9,28.8,45.4,56.3,59.7,88.2c14.3,31.9,3.4,67.1,33.3,101.2c-11.6-5-20.4-11.4-29.6-17.2c-6.5-4.1-14.1-8.4-21.3-2.7
			c-8.9,7.2-4.3,16.5-0.1,23.8c4.3,7.5,9.7,15.1,16.6,20.1c18.9,13.9,31.1,32.6,44.9,51c30.3,40.2,57.4,90.1,122.3,75.8
			c16.6-3.7,46,12.9,47.4-10.4c1.3-21.6-30.4-22.5-50-28c-3.1-0.9-6.5-0.7-9.8-1c-52.9-3.9-69.5-28.6-53.6-80c4-13,0-23.4-9-32.9
			c-13.5-14.3-26.3-29.2-39.6-43.6c-7.1-7.7-20.8-14.8-9-26.4c10.8-10.5,16.7,4.2,23.6,9.6c31.5,24.2,51.3,20.5,73.9-11.5
			c19.5-27.7,18.9-52.1-5.3-76.4c-11-11.1-25.5-22.9-7.5-40.6c15.9,32.4,23.4,33.9,42.8,6.7c7.4-10.3,17.2-12.8,27.5-16
			c45.2-13.9,78.3-42.1,102.5-82.5c11.4-18.9,15.2-35,1.4-54.3c-8.1-11.4-19.2-28.8-11.9-39.2c16.3-22.9,7.9-37.1-14.4-52.3
			c60.9,1.9,60.9,1.9,70.2,50.3c0.4,2.1,0.6,4.4,1.3,6.4c3.3,9.9,9,18,20,19.6c10.1,1.5,16.2-5.5,21.4-12.7c8.7-12.2,13.9-25.8,6-40
			c-15-27.1,1.2-44.7,21.7-52.4c37.8-14.1,60.4-43.5,82.6-72.7c29.3-38.5,41.7-80.9,8.5-124.9c-4.1-5.4-2.8-10.7,0.4-15.1
			c14.1-19.5,27.8-36,55.9-40.6c51.6-8.5,110.4,16.2,154.4-30.8c2.5-2.6,8.3-2.1,12.6-3c11-2.3,25.6-4.5,29.6,6.3
			c4.7,12.5-11.1,17.1-19.7,22.4c-40.2,24.4-53.3,59.5-40.6,106.4c5.5,20.2,14.7,25.6,32.8,14.2c34.5-21.8,62.9-46,62.8-92.8
			c-0.1-36.3,25.6-52,59.3-40.5c13.9,4.8,28.3,6.2,35.2-7.2c15.8-30.4,41.2-35.8,71.8-34.8c24.8,0.8,39.5-12,28.6-37.1
			c-8.5-19.6,1-21.5,14.8-21.1c20.8,0.5,41.6,2.8,62.4,4.1c11.8,0.7,25.4,4.3,32.1-9.6C2494.9,583.9,2487.9,570.5,2476,564.3z
			 M186.6,834c-9.9-5.1,2.3-14.9,5.2-22.3c4.5-11.2,12.5-24.6-2.8-31.1c-14.8-6.2-25,5.2-29,18.8c-3.2,10.8,1.4,25.7-16.8,26.3
			c-2.5,0.1-7.3-2.8-7.3-4.4c-0.6-13.5,1-28.1,13.6-34.7c26.8-13.8,35.2-33.7,22.3-67.3c43.1,18.9,49.4,56.5,67.7,84.8
			c7,10.8-3,21.3-12.4,27.1C214.7,839.1,198.4,840.1,186.6,834z M2467.2,588.3c-3,5.6-9.1,5.5-14.6,4.9c-18.6-1.9-37.1-3.7-55.6-6.2
			c-13.9-1.8-25.9,1.9-37.3,9.6c-17.8,12.1-4,21.9,1.5,33c5.6,11.4-1.5,17.1-11.9,17.1c-33.4,0-63.4,6.1-82.5,37.4
			c-3.6,6-10.4,5.9-17.7,4.4c-50-10-77.4,9.3-81.1,59.5c-2.3,31.7-18.5,52.8-43.4,69.6c-11.3,7.6-21,10.2-21.1-8.4
			c-0.1-31.7-9.2-65.5,35.1-81.1c17.7-6.3,30.5-27.3,44.7-42.4c5.3-5.7,6.8-14,2.2-21.5c-5.3-8.4-12.8-6-20.5-3.6
			c-31.6,10-68.1,8.4-91,39.2c-2.6,3.5-10.7,6.2-14.7,4.8c-32.1-11.4-63.2,5.3-94.4,2.7c-32.8-2.7-54.7,11.9-73,35.6
			c-13.7,17.8-29.2,30.7-2.3,56.7c21.5,20.7,11.9,57.1-6.3,82.2c-22.9,31.5-45,63.8-85.5,78.6c-29.8,10.9-38,37.7-28.9,71.7
			c3.2,11.9,1.9,25.7-9.3,27.8c-15.1,2.9-7.6-13.8-11.5-21.2c-7.9-15,6.2-45.9-20.6-44.6c-26.2,1.3-55.8-30.1-79.4,5.2
			c-3.6,5.3-11.7,13.1-5.9,16.6c36.7,21.9,10,68.3,38,94c9.9,9.1,1.4,22.4-4.9,33.1c-20.2,34.2-47.8,59.2-85.6,73.4
			c-19.6,7.4-43.7,9.9-46.2,38.9c-12.3-8.4-7.2-15.2-7.5-21.2c-0.2-6.9-1.1-13.4-8.3-16.3c-8.3-3.4-16.1,0.1-20.5,6.4
			c-13.1,18.7-22.7,38.2-3.4,59.2c6.7,7.2,14.4,14.1,19.1,22.5c13.9,24.7-2.2,42.5-18,57.3c-15.1,14.2-31,5.3-43.9-6.4
			c-23-20.9-41.6-14.4-45.6,2.3c0.5,4.9,1.5,10.3,3.5,16c4.7,13.2,18.1,28.9,23.8,33.7c13.1,11,24.4,18,31.8,36.6
			c8.2,20.8-6.9,59.1,2,73.2c9.6,15.1,35.8,29.5,45,29.9c21.2,0.8,29.4,0.2,44.5,5.6c13.8,4.9,25.6,9.6,27.9,17.3
			c2.2,7.1-2.7,9.1-18.2,6.9c-11.5-1.7-10.5-3-21-3.3c-9.6-0.3-30,6.6-39.6,0.3c-2.6-1.7-25.1-6.1-38.2-20.5
			c-33.1-36.4-57.4-89-75.3-99.3c-17.9-10.3-24.5-31.5-17.9-35.3s38.3,31.7,46.6,28.2c6.3-2.7-7.7-30.1-16.5-53.6
			c-6.9-18.6-10.1-46.6-10.2-50.3c0-3.6-2.7-14.1-4.8-23.4c-18.7-32.2-47.9-61.6-61.3-91.9c-4.6-10.3-17.7-15.9-28.5-9.2
			c-37.1,23-80,37.4-109.7,71.2c-14.3,16.3-29.1,33.3-27.7,57.7c0.4,6.4-0.3,14.3-8.8,15.2c-7.9,0.9-11.1-6.2-13.9-12
			c-13.7-28.6-27.9-57-40.1-86.2c-6.1-14.5-14.9-25.6-25.1-37.4c-33.4-38.4-72.7-51.7-124.2-51.1c-38.8,0.4-79.1-14.3-113.8-36.9
			c-9.8-6.4-22.5-16.7-32.8-8c-12,10.1,0.8,24.3,6.6,31.6c17.8,22.8,32.4,53.2,73,37.8c19.6-7.4,36.9,10.7,46.9,24.1
			c11.3,15.3-10.7,22.6-18.9,32.6c-9.4,11.3-23.7,15.2-37.6,19.2c-19.1,5.5-36.9,13.4-53.3,25c-33.1,23.4-69.3,13.6-86.4-23.8
			c-10.5-22.9-18.8-46.7-27.7-70.3c-7.2-18.9-16.5-36-35-46.1c-9.5-5.1-19.9-12.4-30.6-4.8c-11,7.9-11.1,20.7-9.6,33
			c1.5,12.5,8.4,22.7,17,31.2c17.3,16.9,27.3,36.5,27.3,61.2c0,7.2,2.6,15.4,6.7,21.4c26.6,39.5,79.4,60.7,124.9,51
			c7.1-1.5,15.3-8.3,21.3-0.6c5.8,7.4-1.1,14.9-5.4,20.6c-28.5,38.5-43.1,87.5-96,107.3c-32.4,12.1-41.6,60-31.3,95
			c7.3,24.9,9.1,51.5,12.1,77.5c1.6,13.4-10,17.8-19.6,23.4c-29.8,17.2-46.1,40.6-53.7,76.9c-11.1,52.4-44.5,96-92.8,121
			c-25.4,13.2-57.7-4.6-86.9,2.4c-2.4,0.6-8.6-6.8-10.1-11.4c-17.8-52.8-50.9-99.5-60.8-155.5c-3.5-19.9-4.3-39.1,2.3-58.3
			c18-52.2,8.6-99.7-26.9-141.2c-14.3-16.8-18.9-33.2-12.7-54.2c7.2-24.4-2-41.7-24.6-54.2c-44.5-24.6-89.3-41.4-140.7-21.6
			c-13.1,5-27.7,6.7-41.7,8.6c-68,9.6-110.1-46.6-101.4-112.8c8.3-63.3,26.3-111.3,82.1-146.3c17-10.6,19.7-40.5,35.7-57.7
			c6.8-7.3,13.6-17.3,24.4-9.1c26.3,19.9,50,5.8,69.4-8.5c27.9-20.5,54.8-8,82.3-5.3c3.5,0.3,9,4.4,9.6,7.4
			c12,60.9,68.8,50.2,108,67.3c3.3,1.5,10.3,0.4,12.5-2.1c24.5-28.9,53.3-15,81.7-9.4c34,6.7,66.1-9.1,100.1-9.5
			c16.7-0.2,33.2-21.9,28.8-41.7c-4.8-21.5-24.6-15.8-41.2-12c-29.3,6.6-60.9-14.5-80.2-32.3c-13.9-12.8-14-18.2,2.7-19.5
			c35.9-2.9,86.7-41.3,125.4-9.7c7.9,6.5,19.4,1.3,25.8-7.9c8.4-12.2,8.8-25.5-0.9-36.5c-10.8-12.2-23.3-22.1-31.3-37.3
			c-8.3-15.9-18.1-3.5-26.2,3.2c-9,7.4-16.6,19.3-30.5,7.4c-18-15.4-32.4-5.4-40.2,10.3c-10.9,22.1-40,42.8-57.9,64.4
			c-12.9,15.5-14.5,35.7-22.2,37.4c-18.4,4.2-35.2-39.5-46.6-41.3c-11.4-1.8-17,45-28.4,51.5c-4.9,2.8-20,3.4-22.8-6.5
			c-4.9-17.7,3.3-22,2-34.3c-1.3-12.3-6.1-23.2-20.2-34.6s-80.3-31.4-108.8-8.1c-20.1,16.4-42.2,30.7-56.2,54.6
			c-16.1,27.5-44.4,25.1-70.7,20.6c-13.7-2.4-17.9-15.1-17.3-28.2c0.5-10.9,2.9-21.8,2.8-32.7c-0.3-22.9,11.2-29.3,31.5-23.7
			c12.7,3.5,25.1,7.8,38.7,5.3c11.1-2,22.9-3.6,25.2-16.9c2.2-12.5-1.1-24.1-12.7-31.5c-7.4-4.7-15.2-8.7-22.3-13.6
			c-11.4-7.9-24.5-14.5,0.7-24.1c24-9.2,34.8-19.1,59.2-40.7c27.4-24.3,73.8-30.1,87.2-49.5c10.5-15.3,15.8-22.2,27.2-6
			c5,7.1,19.5,22.7,28.6,28.3c5.7,3.5,14.2,6.3,18.7,1.6c20.9-21.9,56.4-19.9,74.3-46c9-13.2,24.5-13.2,37-19.3
			c13-6.4,25.7-17.2,23.4-32.6c-2.2-14.6-16.6-3.6-25.2-6c-25.6-7-33.6-25-34.9-49.3c-0.7-12.8,6-32.8-15.8-33.3
			c-22.5-0.5-23.8,18.3-24,35.6c-0.3,17.5-0.2,35.1-1,52.6c-0.8,15.9-10.3,25.8-24.4,32.2c-14.3,6.4-22.1-2-30.8-11.4
			c-11.2-12.2-26.6-16-42.2-13.7c-18.5,2.8-37.7,5.5-43.4-16.8c-6.1-23.8,0.2-45.6,24-59.1c15.2-8.7,30.1-18,45-27.1
			c21.2-12.9,37.5-29.3,44.7-54.4c7.3-25.5,26-39.5,52.2-44.1c56.8-10,111.8-10.4,168.6,7.9c40.5,13.1,79.5,30.3,120.3,42.2
			c44.7,13.1,87.6,5.6,127.2-16.7c29.2-16.5,60.2-13.8,90-11c37.4,3.5,57.6-12.2,70.8-44.3c4.6-11.3,5.6-31.5,22-27.9
			c16,3.5,7.7,22.5,8.7,34.6c1.1,13.7,5.7,25.5,12.8,36.7c4.5,7.2,7.9,17.2,19.2,14.1c9.6-2.6,15.1-11.8,14.3-20.2
			c-4.3-47.8,25.4-49.5,60.4-47c20.3,1.4,36.6-2.7,23.3-29.7c-5-10.2,0-18.9,9.8-24.8c38.5-23.2,76.4-47.5,123.4-50.7
			c26.8-1.8,52.9-7.4,78.6-14.2c10-6.5,28.7-15.7,28-18.2c-1.9-7.1-16.9-12.6-23.3-19.8c-6.4-7.2-22.2-12.1-36.6-14.1
			c-34.7-4.8-61.9-34.2-49.2-43c16.7-11.7,43.7,5.8,56.7,9.4c16.2,4.4,20.5,13.7,70.3,15.5c10.6,0.4,5,17.5,4.3,33.1
			c-0.4,9.5,9.2,10.3,17.8,13.1s29.2,15.6,29.2,15.6s0,0,0,0c12.9,5.6,24.9,14,36.8,22.8c12.4,9.1,8.9,17.5-1.1,26.7
			c-15.7,14.4-13.5,26,8.7,26.6c49.4,1.3,96.9,20.7,147,14c21-2.8,39.5,5.7,54.4,19.2c30.9,28.2,64.2,25.9,97.4,8
			c30.3-16.4,60.9-16.8,92.5-7.8c32.6,9.4,67,12.8,97.7,28.8c8.1,4.2,17.1,4.3,25.8,2c21.8-5.9,38.5-1.1,50,19.8
			c9.2,16.8,22.8,19.4,38.4,7.8c6.5-4.8,13.7-9,21.3-5.4c31.4,15.1,61.5,7.3,94.4,3.2c63.7-7.9,118.2,25.9,171.3,57.2
			C2466.3,575.2,2471.3,580.8,2467.2,588.3z M408.7,1053.4c16.8,5.3,27.9,0.6,35-14.5c4.6-9.8,8.1-35.7,15.6-35.2s15.1,23,24.6,30.7
			c23.8,19.3,30.4,16.6,36.8-12.9c3.5-16,15.7-18.4,22.7-6.7c15.8,26.5,41.9,37,66.1,51.6c10.9,6.6,18.7,8.6,29.9,2.3
			c7.1-4,18.9-15.9,22.7,0.7c2.7,11.7-7.1,26.5-19.9,25.7c-37.2-2.4-73.5,14.1-111,2.9c-20.8-6.2-39.8-8.3-61.8,6
			c-28.1,18.2-92.8-13.6-100.5-45.6c-3.1-12.9-10.9-18.6-22.2-20.9c-34.3-7.1-68.5-17.1-100.4,9.9c-10.1,8.5-24.5,13.6-44.3,9.8
			c30.4-29.7,51.5-62.7,83.5-85.3c30.6-21.6,90.3-8.9,111,22.9c6.1,9.4,4.8,18.7,0.8,28.2C391.5,1036.6,390.3,1047.6,408.7,1053.4z
			 M585.4,946.1c0.2-2.2,8-11.9,9.4-13.5c3.6-4.1,10.1-14.2,14.2-9.8c10,10.8,22.9,13.7,35.8,8.1c11.9-5.1,14.3-22.1,28.1-18
			c7.7,2.3,12.2,13.2,17.8,23.5c4.4,8,10.5,15,13.2,21.7c4.4,11.4-2.7,20.7-11.3,15.8c-40.6-23.2-140.9,31.8-146.4,17.9
			C542.7,982.8,583.6,966.7,585.4,946.1z"/>
	</g>
</g>
</svg>
